
        <svg xmlns="http://www.w3.org/2000/svg" xmlns:xlink="http://www.w3.org/1999/xlink" version="1.1" width="100%" height="100%" viewBox="0 0 3192 3192">
			
			<g transform="scale(9.6) translate(10, 10)">
				<defs id="SvgjsDefs2339">
                    <filter id="dropshadow" height="130%">
                        <feGaussianBlur in="SourceAlpha" stdDeviation="2"/> <!-- stdDeviation is how much to blur -->
                        <feOffset dx="1" dy="1" result="offsetblur"/> <!-- how much to offset -->
                        <feComponentTransfer>
                            <feFuncA type="linear" slope="0.3"/> <!-- slope is the opacity of the shadow -->
                        </feComponentTransfer>
                        <feMerge> 
                            <feMergeNode/> <!-- this contains the offset blurred image -->
                            <feMergeNode in="SourceGraphic"/> <!-- this contains the element that the filter is applied to -->
                        </feMerge>
                    </filter>
                </defs>
                <g id="SvgjsG2340" featureKey="rootContainer" transform="matrix(2.9875715273930257,0,0,2.9875715273930257,0.00001862645013371933,0.00001862645013371933)" fill="#fff">
                    <path xmlns="http://www.w3.org/2000/svg" d="M52.3 104.6a52.3 52.3 0 1 1 52.3-52.3 52.4 52.4 0 0 1-52.3 52.3zm0-102.3a50 50 0 1 0 50 50 50 50 0 0 0-50-50z" filter="url(#dropshadow)"/>
                </g>
                <g id="SvgjsG2341" featureKey="nameFeature-0" transform="matrix(1.1332730175330838,0,0,1.1332730175330838,54.18676314492773,129.07252810702457)" fill="#fff" filter="url(#dropshadow)">
                    <path d="M1.6 28.32 c0 6.28 5.32 11.68 12.08 11.68 c2.04 0 3.96 -0.44 5.72 -1.32 l0 1.32 l6.36 0 l-0.04 -23.12 l-6.48 0 l0 1.04 c-1.72 -0.84 -3.6 -1.24 -5.56 -1.24 c-6.76 0 -12.08 5.4 -12.08 11.64 z M17.68 32.28 c-1.08 1.04 -2.4 1.64 -4 1.64 c-3.16 0 -5.6 -2.64 -5.6 -5.6 c0 -2.92 2.44 -5.56 5.6 -5.56 c1.6 0 2.92 0.56 4 1.6 c0.68 0.68 1.56 2.12 1.56 2.96 l0 2.04 c0 0.84 -0.88 2.2 -1.56 2.92 z M29 40 l6.48 0 l0 -1.28 c1.72 0.84 3.6 1.24 5.56 1.24 c6.8 0 12.12 -5.4 12.12 -11.68 c0 -6.24 -5.32 -11.64 -12.12 -11.64 c-2 0 -3.92 0.44 -5.68 1.32 l0 -9.2 l-6.36 0 l0 0.4 c0 6.36 -0.04 12.76 -0.04 19.12 c0 3.8 0.04 7.56 0.04 11.36 l0 0.36 z M46.68 28.28 c0 2.96 -2.44 5.6 -5.64 5.6 c-1.56 0 -2.88 -0.56 -3.96 -1.6 c-0.8 -0.8 -1.6 -2.24 -1.6 -3.28 l0 -1.4 c0 -1.04 0.8 -2.44 1.6 -3.24 c1.08 -1.04 2.4 -1.64 3.96 -1.64 c3.2 0 5.64 2.64 5.64 5.56 z M54.68000000000001 40.04 l6.48 0 l0 -6.8 l1.04 -1.16 l5.84 7.92 l7.92 0 l-9.4 -12.68 l9.88 -10.52 l-8.24 0 l-7.12 7.72 l0 -15.72 l-6.36 0 z M93.16 40.04 l6.48 0 l-0.08 -31.28 l-6.36 0 l0 0.4 z M102.84 28.32 c0 6.28 5.32 11.68 12.08 11.68 c2.04 0 3.96 -0.44 5.72 -1.32 l0 1.32 l6.36 0 l-0.04 -23.12 l-6.48 0 l0 1.04 c-1.72 -0.84 -3.6 -1.24 -5.56 -1.24 c-6.76 0 -12.08 5.4 -12.08 11.64 z M118.92000000000002 32.28 c-1.08 1.04 -2.4 1.64 -4 1.64 c-3.16 0 -5.6 -2.64 -5.6 -5.6 c0 -2.92 2.44 -5.56 5.6 -5.56 c1.6 0 2.92 0.56 4 1.6 c0.68 0.68 1.56 2.12 1.56 2.96 l0 2.04 c0 0.84 -0.88 2.2 -1.56 2.92 z M130.24 40 l6.48 0 l0 -1.28 c1.72 0.84 3.6 1.24 5.56 1.24 c6.8 0 12.12 -5.4 12.12 -11.68 c0 -6.24 -5.32 -11.64 -12.12 -11.64 c-2 0 -3.92 0.44 -5.68 1.32 l0 -9.2 l-6.36 0 l0 0.4 c0 6.36 -0.04 12.76 -0.04 19.12 c0 3.8 0.04 7.56 0.04 11.36 l0 0.36 z M147.92000000000002 28.28 c0 2.96 -2.44 5.6 -5.64 5.6 c-1.56 0 -2.88 -0.56 -3.96 -1.6 c-0.8 -0.8 -1.6 -2.24 -1.6 -3.28 l0 -1.4 c0 -1.04 0.8 -2.44 1.6 -3.24 c1.08 -1.04 2.4 -1.64 3.96 -1.64 c3.2 0 5.64 2.64 5.64 5.56 z M156.00000000000003 32.96 c0 5.6 7.08 7.04 11.4 7.04 c4.28 0 10.68 -1.4 10.68 -6.8 c0 -1.64 -0.48 -2.44 -1.44 -3.64 c-0.8 -1.04 -2 -1.8 -3.12 -2.36 c-0.84 -0.44 -1.76 -0.8 -2.68 -1.08 c-0.92 -0.32 -1.84 -0.56 -2.72 -0.88 c-0.48 -0.16 -1.08 -0.32 -1.72 -0.56 c-0.6 -0.2 -1.2 -0.4 -1.56 -0.6 c-0.2 -0.12 -0.4 -0.24 -0.56 -0.36 s-0.2 -0.24 -0.2 -0.36 c0 -0.32 0.32 -0.6 0.96 -0.84 c0.64 -0.2 1.36 -0.28 1.8 -0.28 c0.68 0 1.6 0.16 2.36 0.48 c0.76 0.36 1.24 0.84 1.24 1.48 l0 1.04 l7.28 -0.04 l0 -1.12 c0 -2.36 -1.28 -4.08 -3.2 -5.36 c-2.36 -1.52 -5.04 -2 -7.8 -2 c-4.32 0 -10.52 1.8 -10.52 7.08 c0 0.92 0.24 1.8 0.72 2.6 c0.4 0.64 0.92 1.36 1.56 1.88 c1.32 1.04 3.32 1.88 4.92 2.4 c0.84 0.28 1.76 0.48 2.6 0.8 c0.48 0.16 1.12 0.32 1.76 0.52 c0.64 0.24 1.2 0.44 1.64 0.64 c0.44 0.24 0.72 0.52 0.72 0.84 c0 0.36 -0.28 0.6 -1 0.8 c-0.64 0.16 -1.4 0.16 -1.84 0.16 c-1 0 -2.28 -0.12 -3.04 -0.56 c-0.24 -0.12 -0.48 -0.32 -0.68 -0.52 s-0.32 -0.36 -0.32 -0.52 l-0.04 -1.4 l-7.24 0 l0 0.16 c0.04 0.44 0.04 0.88 0.04 1.36 z"/>
                </g>
			</g>
		</svg>
	
